<svg width="30" height="30" viewBox="0 0 30 30" fill="none" xmlns="http://www.w3.org/2000/svg">
<path d="M25.3125 3.04688H4.6875C4.25238 3.04688 3.83508 3.21973 3.5274 3.5274C3.21973 3.83508 3.04688 4.25238 3.04688 4.6875V25.3125C3.04688 25.7476 3.21973 26.1649 3.5274 26.4726C3.83508 26.7803 4.25238 26.9531 4.6875 26.9531H25.3125C25.7476 26.9531 26.1649 26.7803 26.4726 26.4726C26.7803 26.1649 26.9531 25.7476 26.9531 25.3125V4.6875C26.9531 4.25238 26.7803 3.83508 26.4726 3.5274C26.1649 3.21973 25.7476 3.04688 25.3125 3.04688ZM25.5469 25.3125C25.5469 25.3747 25.5222 25.4343 25.4782 25.4782C25.4343 25.5222 25.3747 25.5469 25.3125 25.5469H4.6875C4.62534 25.5469 4.56573 25.5222 4.52177 25.4782C4.47782 25.4343 4.45312 25.3747 4.45312 25.3125V4.6875C4.45312 4.62534 4.47782 4.56573 4.52177 4.52177C4.56573 4.47782 4.62534 4.45312 4.6875 4.45312H25.3125C25.3747 4.45312 25.4343 4.47782 25.4782 4.52177C25.5222 4.56573 25.5469 4.62534 25.5469 4.6875V25.3125ZM11.0156 13.125V20.625C11.0156 20.8115 10.9415 20.9903 10.8097 21.1222C10.6778 21.254 10.499 21.3281 10.3125 21.3281C10.126 21.3281 9.94718 21.254 9.81532 21.1222C9.68345 20.9903 9.60938 20.8115 9.60938 20.625V13.125C9.60938 12.9385 9.68345 12.7597 9.81532 12.6278C9.94718 12.496 10.126 12.4219 10.3125 12.4219C10.499 12.4219 10.6778 12.496 10.8097 12.6278C10.9415 12.7597 11.0156 12.9385 11.0156 13.125ZM21.3281 16.4062V20.625C21.3281 20.8115 21.254 20.9903 21.1222 21.1222C20.9903 21.254 20.8115 21.3281 20.625 21.3281C20.4385 21.3281 20.2597 21.254 20.1278 21.1222C19.996 20.9903 19.9219 20.8115 19.9219 20.625V16.4062C19.9219 15.7225 19.6503 15.0667 19.1668 14.5832C18.6833 14.0997 18.0275 13.8281 17.3438 13.8281C16.66 13.8281 16.0042 14.0997 15.5207 14.5832C15.0372 15.0667 14.7656 15.7225 14.7656 16.4062V20.625C14.7656 20.8115 14.6915 20.9903 14.5597 21.1222C14.4278 21.254 14.249 21.3281 14.0625 21.3281C13.876 21.3281 13.6972 21.254 13.5653 21.1222C13.4335 20.9903 13.3594 20.8115 13.3594 20.625V13.125C13.3594 12.9385 13.4335 12.7597 13.5653 12.6278C13.6972 12.496 13.876 12.4219 14.0625 12.4219C14.249 12.4219 14.4278 12.496 14.5597 12.6278C14.6915 12.7597 14.7656 12.9385 14.7656 13.125V13.3723C15.3451 12.8805 16.0531 12.5647 16.8062 12.4622C17.5592 12.3596 18.3259 12.4746 19.0158 12.7935C19.7056 13.1125 20.2899 13.6221 20.6996 14.2622C21.1093 14.9023 21.3274 15.6462 21.3281 16.4062ZM11.4844 9.84375C11.4844 10.0755 11.4156 10.3021 11.2869 10.4948C11.1581 10.6875 10.9751 10.8377 10.761 10.9264C10.5468 11.0151 10.3112 11.0383 10.0839 10.9931C9.85656 10.9479 9.64775 10.8363 9.48386 10.6724C9.31997 10.5085 9.20836 10.2997 9.16314 10.0724C9.11793 9.84505 9.14113 9.60943 9.22983 9.39529C9.31853 9.18116 9.46873 8.99814 9.66144 8.86937C9.85416 8.7406 10.0807 8.67188 10.3125 8.67188C10.6233 8.67188 10.9214 8.79534 11.1411 9.01511C11.3609 9.23488 11.4844 9.53295 11.4844 9.84375Z" fill="#D9D9D9"/>
</svg>
