<svg width="485" height="74" viewBox="0 0 485 74" fill="none" xmlns="http://www.w3.org/2000/svg">
<g clip-path="url(#clip0_17_22)">
<path d="M29.6 12.3333H34.5333M22.2 19.7333V7.40001C22.2 6.09161 22.7198 4.83679 23.6449 3.91161C24.5701 2.98644 25.8249 2.46667 27.1333 2.46667H46.8667C48.1751 2.46667 49.4299 2.98644 50.3551 3.91161C51.2802 4.83679 51.8 6.09161 51.8 7.40001V32.0667C51.8 33.3751 51.2802 34.6299 50.3551 35.5551C49.4299 36.4802 48.1751 37 46.8667 37H27.1333C25.8249 37 24.5701 37.5198 23.6449 38.4449C22.7198 39.3701 22.2 40.6249 22.2 41.9333V66.6C22.2 67.9084 22.7198 69.1632 23.6449 70.0884C24.5701 71.0136 25.8249 71.5333 27.1333 71.5333H46.8667C48.1751 71.5333 49.4299 71.0136 50.3551 70.0884C51.2802 69.1632 51.8 67.9084 51.8 66.6V54.2667M39.4667 22.2H7.40001C6.09161 22.2 4.83679 22.7198 3.91161 23.6449C2.98644 24.5701 2.46667 25.8249 2.46667 27.1333V51.8C2.46667 53.1084 2.98644 54.3632 3.91161 55.2884C4.83679 56.2136 6.09161 56.7333 7.40001 56.7333H22.2M34.5333 51.8H66.6C67.9084 51.8 69.1632 51.2802 70.0884 50.3551C71.0136 49.4299 71.5333 48.1751 71.5333 46.8667V22.2C71.5333 20.8916 71.0136 19.6368 70.0884 18.7116C69.1632 17.7864 67.9084 17.2667 66.6 17.2667H51.8M39.4667 61.6667H44.4" stroke="white" stroke-width="4.93333"/>
</g>
<g clip-path="url(#clip1_17_22)">
<path d="M137 8.09375C137 3.626 140.626 0 145.094 0H202.906C207.374 0 211 3.626 211 8.09375V17.3438C211 18.2637 210.635 19.146 209.984 19.7965C209.334 20.447 208.451 20.8125 207.531 20.8125C206.611 20.8125 205.729 20.447 205.078 19.7965C204.428 19.146 204.062 18.2637 204.062 17.3438V8.09375C204.062 7.78709 203.941 7.493 203.724 7.27616C203.507 7.05932 203.213 6.9375 202.906 6.9375H145.094C144.787 6.9375 144.493 7.05932 144.276 7.27616C144.059 7.493 143.938 7.78709 143.938 8.09375V65.9062C143.938 66.5445 144.456 67.0625 145.094 67.0625H207.531C208.451 67.0625 209.334 67.428 209.984 68.0785C210.635 68.729 211 69.6113 211 70.5312C211 71.4512 210.635 72.3335 209.984 72.984C209.334 73.6345 208.451 74 207.531 74H145.094C142.947 74 140.888 73.1473 139.371 71.6294C137.853 70.1115 137 68.0528 137 65.9062V8.09375ZM175.156 26.5938C176.076 26.5938 176.959 26.9592 177.609 27.6097C178.26 28.2602 178.625 29.1425 178.625 30.0625V48.5625C178.625 53.2106 177.348 56.6933 174.717 58.8855C172.205 60.9806 169.162 61.2812 167.062 61.2812C166.143 61.2812 165.26 60.9158 164.61 60.2653C163.959 59.6148 163.594 58.7325 163.594 57.8125C163.594 56.8925 163.959 56.0102 164.61 55.3597C165.26 54.7092 166.143 54.3438 167.062 54.3438C168.663 54.3438 169.666 54.0662 170.277 53.5575C170.767 53.1505 171.688 52.0081 171.688 48.5625V30.0625C171.688 29.1425 172.053 28.2602 172.703 27.6097C173.354 26.9592 174.236 26.5938 175.156 26.5938ZM189.152 30.4325C191.085 28.1292 194.123 26.5938 198.281 26.5938C202.143 26.5938 205.057 27.9165 207.022 29.9931C207.632 30.6656 207.953 31.5499 207.918 32.4565C207.883 33.3631 207.494 34.2199 206.834 34.843C206.175 35.4662 205.297 35.8062 204.39 35.7901C203.483 35.7739 202.618 35.403 201.981 34.7569C201.473 34.2204 200.455 33.5312 198.281 33.5312C195.969 33.5312 194.951 34.3083 194.461 34.8956C193.971 35.491 193.689 36.2297 193.656 37C193.656 37.481 193.855 38.3875 194.461 39.1044C194.956 39.6917 195.964 40.4688 198.281 40.4688C198.633 40.4688 198.97 40.5196 199.29 40.6167C202.356 41.0515 204.673 42.4205 206.255 44.3075C208.077 46.4813 208.688 49.0435 208.688 50.875C208.688 52.7065 208.077 55.2687 206.255 57.4425C204.322 59.7458 201.283 61.2812 197.125 61.2812C193.263 61.2812 190.349 59.9585 188.384 57.8819C187.775 57.2094 187.453 56.3251 187.488 55.4185C187.524 54.5119 187.913 53.6551 188.572 53.032C189.232 52.4088 190.109 52.0688 191.016 52.0849C191.923 52.1011 192.788 52.472 193.425 53.1181C193.934 53.6546 194.951 54.3438 197.125 54.3438C199.438 54.3438 200.455 53.5667 200.945 52.9794C201.435 52.384 201.718 51.6453 201.75 50.875C201.75 50.394 201.551 49.4875 200.945 48.7706C200.45 48.1833 199.442 47.4062 197.125 47.4062C196.783 47.407 196.444 47.3571 196.117 47.2583C193.05 46.8189 190.733 45.4545 189.152 43.5675C187.61 41.7227 186.751 39.4036 186.719 37C186.719 35.1685 187.329 32.6063 189.152 30.4325Z" fill="white"/>
</g>
<path d="M293.601 27.75C285.47 29.8467 280.167 33.4388 280.167 37.5396C280.167 44.0362 293.749 49.3333 310.537 49.3333C312.819 49.3333 314.422 49.2131 316.55 49.0342" stroke="white" stroke-width="6.16667" stroke-linecap="round" stroke-linejoin="round"/>
<path d="M304.331 49.025C303.057 47.1873 301.846 45.5316 300.692 43.475C292.21 28.3667 289.938 13.3508 295.667 9.94993C299.212 7.80085 305.061 10.73 311.003 16.8998" stroke="white" stroke-width="6.16667" stroke-linecap="round" stroke-linejoin="round"/>
<path d="M293.823 47.4432C291.658 55.7312 292.096 61.9842 295.549 64.0778C301.047 67.4078 312.159 58.0407 320.349 43.0988C321.459 41.033 322.455 39.0011 323.333 37" stroke="white" stroke-width="6.16667" stroke-linecap="round" stroke-linejoin="round"/>
<path d="M311 57.1033C316.945 63.27 322.769 66.1992 326.349 64.0501C332.053 60.6523 329.805 45.6364 321.314 30.525C320.13 28.4376 318.918 26.8127 317.675 24.975" stroke="white" stroke-width="6.16667" stroke-linecap="round" stroke-linejoin="round"/>
<path d="M328.452 46.25C336.505 44.1318 341.833 40.5459 341.833 36.4574C341.833 29.9515 328.242 24.6667 311.478 24.6667C309.175 24.6667 307.574 24.7561 305.45 24.9349" stroke="white" stroke-width="6.16667" stroke-linecap="round" stroke-linejoin="round"/>
<path d="M298.667 37C299.545 34.965 300.538 32.967 301.651 30.9012C309.813 15.9655 320.931 6.57369 326.46 9.93144C329.882 12.025 330.351 18.2749 328.186 26.5599M311.802 37.0463H311.771C311.74 37.4471 311.401 37.7863 310.969 37.7863C310.763 37.7761 310.568 37.6874 310.425 37.5384C310.281 37.3894 310.2 37.1913 310.198 36.9846C310.198 36.5529 310.537 36.2138 310.938 36.2138H310.907C311.308 36.1829 311.678 36.5529 311.678 36.9538" stroke="white" stroke-width="6.16667" stroke-linecap="round" stroke-linejoin="round"/>
<path d="M443.375 46.25C442.501 46.25 441.769 45.954 441.177 45.362C440.585 44.77 440.29 44.0382 440.292 43.1667V40.0833H444.917V41.625H451.083V38.5417H443.375C442.501 38.5417 441.769 38.2457 441.177 37.6537C440.585 37.0617 440.29 36.3299 440.292 35.4583V30.8333C440.292 29.9597 440.588 29.2269 441.18 28.6349C441.772 28.0429 442.503 27.748 443.375 27.75H452.625C453.499 27.75 454.231 28.046 454.823 28.638C455.415 29.23 455.71 29.9618 455.708 30.8333V33.9167H451.083V32.375H444.917V35.4583H452.625C453.499 35.4583 454.231 35.7543 454.823 36.3463C455.415 36.9383 455.71 37.6701 455.708 38.5417V43.1667C455.708 44.0403 455.412 44.7731 454.82 45.3651C454.228 45.9571 453.497 46.2521 452.625 46.25H443.375ZM463.417 46.25C462.543 46.25 461.81 45.954 461.218 45.362C460.626 44.77 460.331 44.0382 460.333 43.1667V40.0833H464.958V41.625H471.125V38.5417H463.417C462.543 38.5417 461.81 38.2457 461.218 37.6537C460.626 37.0617 460.331 36.3299 460.333 35.4583V30.8333C460.333 29.9597 460.629 29.2269 461.221 28.6349C461.813 28.0429 462.545 27.748 463.417 27.75H472.667C473.54 27.75 474.273 28.046 474.865 28.638C475.457 29.23 475.752 29.9618 475.75 30.8333V33.9167H471.125V32.375H464.958V35.4583H472.667C473.54 35.4583 474.273 35.7543 474.865 36.3463C475.457 36.9383 475.752 37.6701 475.75 38.5417V43.1667C475.75 44.0403 475.454 44.7731 474.862 45.3651C474.27 45.9571 473.538 46.2521 472.667 46.25H463.417ZM423.333 46.25C422.46 46.25 421.727 45.954 421.135 45.362C420.543 44.77 420.248 44.0382 420.25 43.1667V30.8333C420.25 29.9597 420.546 29.2269 421.138 28.6349C421.73 28.0429 422.462 27.748 423.333 27.75H432.583C433.457 27.75 434.19 28.046 434.782 28.638C435.374 29.23 435.669 29.9618 435.667 30.8333V33.9167H431.042V32.375H424.875V41.625H431.042V40.0833H435.667V43.1667C435.667 44.0403 435.371 44.7731 434.779 45.3651C434.187 45.9571 433.455 46.2521 432.583 46.25H423.333Z" fill="white"/>
<defs>
<clipPath id="clip0_17_22">
<rect width="74" height="74" fill="white"/>
</clipPath>
<clipPath id="clip1_17_22">
<rect width="74" height="74" fill="white" transform="translate(137)"/>
</clipPath>
</defs>
</svg>
